PathFileType	4	(X/Y/Z)	..\data\2014034\dynamic\2014034_C4_04.trc
DataRate	CameraRate	NumFrames	NumMarkers	Units	OrigDataRate	OrigDataStartFrame	OrigNumFrames
100.000000	100.000000	4	52	mm	100.000000	90	180
Frame#	Time	L_IAS			L_IPS			R_IPS			R_IAS			L_FTC			L_FLE			L_FME			L_FAX			L_TTC			L_FAL			L_TAM			L_FCC			L_FM1			L_FM2			L_FM5			R_FTC			R_FLE			R_FME			R_FAX			R_TTC			R_FAL			R_TAM			R_FCC			R_FM1			R_FM2			R_FM5			CV7			TV10			SXS			SJN			L_SIA			L_SRS			L_SAA			L_SAE			L_HLE			L_HME			L_UOA			L_RSP			L_UHE			L_HM2			L_HM5			R_SIA			R_SRS			R_SAA			R_SAE			R_HLE			R_HME			R_UOA			R_RSP			R_UHE			R_HM2			R_HM5			
		X1	Y1	Z1	X2	Y2	Z2	X3	Y3	Z3	X4	Y4	Z4	X5	Y5	Z5	X6	Y6	Z6	X7	Y7	Z7	X8	Y8	Z8	X9	Y9	Z9	X10	Y10	Z10	X11	Y11	Z11	X12	Y12	Z12	X13	Y13	Z13	X14	Y14	Z14	X15	Y15	Z15	X16	Y16	Z16	X17	Y17	Z17	X18	Y18	Z18	X19	Y19	Z19	X20	Y20	Z20	X21	Y21	Z21	X22	Y22	Z22	X23	Y23	Z23	X24	Y24	Z24	X25	Y25	Z25	X26	Y26	Z26	X27	Y27	Z27	X28	Y28	Z28	X29	Y29	Z29	X30	Y30	Z30	X31	Y31	Z31	X32	Y32	Z32	X33	Y33	Z33	X34	Y34	Z34	X35	Y35	Z35	X36	Y36	Z36	X37	Y37	Z37	X38	Y38	Z38	X39	Y39	Z39	X40	Y40	Z40	X41	Y41	Z41	X42	Y42	Z42	X43	Y43	Z43	X44	Y44	Z44	X45	Y45	Z45	X46	Y46	Z46	X47	Y47	Z47	X48	Y48	Z48	X49	Y49	Z49	X50	Y50	Z50	X51	Y51	Z51	X52	Y52	Z52	

91	0.9	1097.761596679688	1033.623291015625	-363.3190612792969	887.0321044921877	1057.221435546875	-269.7059326171876	889.3154907226565	1062.364501953125	-172.6507873535157	1104.247802734375	1042.419189453125	-86.72383880615236	1017.399780273438	967.8062744140627	-414.7645568847657	1144.8251953125	541.4650878906251	-427.8636474609376	1167.233154296875	524.6904907226564	-281.6818847656251	1106.368408203125	503.6924438476564	-432.9414062500001	1173.701538085938	454.5565490722657	-382.2724609375001	828.8828735351565	237.1513061523438	-395.1121520996095	849.5861816406252	239.0278778076172	-299.9990234375001	756.0368041992189	241.1194915771485	-348.3189697265626	893.781433105469	97.01313018798831	-281.1440124511719	910.6734008789065	92.17330932617189	-339.7287292480469	871.7566528320315	94.14938354492189	-387.2120666503907	1014.678527832031	965.0308227539065	-37.19807815551759	1060.041137695313	524.1597290039064	-96.31580352783206	1074.96435546875	515.4992065429689	-238.8653411865235	1047.25927734375	465.5543518066407	-96.60267639160159	1115.504516601563	451.2091064453126	-155.2550506591797	976.9666748046877	72.19947814941408	-121.4653549194336	1005.038635253906	81.49965667724611	-218.7998504638672	927.4309082031252	20.31122398376465	-173.9899139404297	1148.606323242188	17.45884132385254	-199.0876617431641	1155.443237304688	37.36825561523438	-134.672119140625	1105.490600585938	18.43473625183106	-84.76898193359376	982.3787231445315	1583.330200195313	-221.6636199951172	875.5592041015627	1318.038940429688	-222.7956542968751	1155.767211914063	1273.224975585938	-233.7726745605469	1098.483520507813	1478.833618164063	-218.0645904541016	865.6630859375002	1355.12109375	-334.8789367675782	924.897399902344	1512.655883789063	-338.0422668457032	986.4392089843752	1509.49853515625	-414.9161682128907	1056.929809570313	1492.20947265625	-431.0768432617189	1014.816650390625	1159.3837890625	-511.7057189941407	962.2688598632815	1144.947875976563	-425.2498779296876	967.0922851562502	1130.387451171875	-486.3788452148439	1142.23828125	907.7844238281252	-464.6710815429689	1090.152709960938	903.1604614257815	-532.8772583007814	1200.85107421875	819.9104614257815	-483.1699829101564	1098.283447265625	807.991394042969	-535.8763427734376	867.5488281250002	1352.33740234375	-120.9751739501953	926.257019042969	1505.1904296875	-116.1976699829102	974.7211914062502	1503.6708984375	-38.93073272705079	1030.732299804688	1494.149169921875	-12.8094072341919	960.281677246094	1156.044555664063	41.63672637939454	930.5075683593752	1142.786010742188	-46.06074523925782	918.8770141601565	1133.322143554688	10.37606525421143	1078.48583984375	887.0018310546877	13.49232769012452	1016.106384277344	882.3881835937502	65.70647430419923	1112.44580078125	796.371765136719	24.57061576843262	1006.335815429688	786.1793212890627	57.66637420654298	
92	0.91	1110.3408203125	1034.701538085938	-362.3496093750001	899.267517089844	1057.624633789063	-269.6501770019532	901.860046386719	1062.877197265625	-172.4441528320313	1116.540771484375	1043.271240234375	-86.42585754394533	1030.883056640625	968.9153442382815	-414.6945800781251	1166.085083007813	544.3308715820314	-427.3417358398439	1188.65380859375	528.4119262695314	-281.1231079101563	1128.584228515625	505.2163391113282	-432.0771484375001	1197.288452148438	458.3283996582032	-381.4539184570313	859.641540527344	229.4961853027344	-394.7359008789064	880.2387695312502	232.0647430419922	-299.6690368652344	786.2033691406252	229.3762969970704	-348.1278991699219	933.9111938476565	92.98689270019533	-282.6112365722657	950.6221313476565	90.26635742187501	-341.3869018554688	911.3953247070315	90.29674530029298	-388.3353271484376	1025.993408203125	965.1021728515627	-37.05397415161134	1063.765258789063	523.7943725585939	-96.77532196044925	1078.3828125	514.9783325195314	-239.2798004150391	1050.266967773438	465.3514709472657	-97.04223632812503	1118.163940429688	450.4002380371095	-156.0397033691407	977.4007568359377	72.53798675537111	-121.8392486572266	1005.162841796875	81.35991668701173	-219.3327331542969	927.502868652344	20.71508026123047	-174.1363677978516	1148.733032226563	17.26712608337403	-199.1572723388672	1155.548461914063	37.27899169921876	-134.7142944335938	1105.576049804688	18.69684982299805	-84.95928955078126	994.2498779296877	1583.744506835938	-222.5015258789063	887.9669189453127	1318.28857421875	-222.2513732910157	1167.98876953125	1273.872436523438	-234.1012268066407	1110.41064453125	1479.433959960938	-218.9426422119141	877.3674316406252	1355.546630859375	-334.4295043945313	936.6427001953127	1512.810791015625	-338.3150329589844	997.8259277343752	1509.48828125	-415.499969482422	1068.010375976563	1491.965454101563	-432.0626525878907	1021.272033691406	1158.735107421875	-510.1838684082032	968.8695068359377	1145.855590820313	-423.599090576172	973.0446777343752	1131.011840820313	-484.646697998047	1142.923461914063	904.4838867187502	-461.972869873047	1090.899780273438	900.915466308594	-530.3541259765626	1199.789672851563	815.3670043945315	-480.316375732422	1097.064331054688	805.6170654296877	-533.2549438476564	879.8975830078127	1352.802734375	-120.6934432983399	938.2462158203127	1505.700927734375	-116.7718887329102	986.1594848632815	1504.388427734375	-39.59412002563477	1042.826416015625	1495.249145507813	-13.64030170440674	976.7822265625002	1156.45458984375	42.91234588623048	947.308532714844	1142.05615234375	-44.74570465087891	935.7506103515627	1132.57421875	11.72954368591309	1101.894653320313	890.5244140625002	15.02770900726319	1039.581420898438	884.1331176757815	67.04103851318361	1138.65673828125	801.178405761719	26.27183723449708	1032.731079101563	787.5603027343752	59.00693130493165	
93	0.92	1122.880981445313	1035.58203125	-361.5366210937501	911.4707641601565	1057.806518554688	-269.6277465820313	914.3999023437502	1063.197998046875	-172.3417510986328	1128.722412109375	1043.866577148438	-86.15525054931642	1044.216430664063	969.8201904296877	-414.6949768066407	1186.796630859375	546.9701538085939	-426.666717529297	1209.387817382813	531.9537963867189	-280.4002685546876	1150.308227539063	506.4039916992189	-431.0389709472657	1220.439331054688	461.9493713378907	-380.4614257812501	891.1445922851565	220.8915405273438	-394.5338439941407	911.5110473632815	224.0017395019532	-299.4510498046876	817.441833496094	216.5742492675782	-348.1138000488282	974.2833251953127	88.52908325195314	-284.2376098632813	990.7266845703127	87.88542938232423	-343.1532592773438	951.4063110351565	86.08074188232423	-389.6378784179689	1037.241088867188	965.064147949219	-37.0296974182129	1067.317138671875	523.4459838867189	-97.2174987792969	1081.703125	514.4269409179689	-239.6776275634766	1053.083984375	465.1830139160157	-97.46183013916018	1120.698364257813	449.6105346679689	-156.7529449462891	977.7967529296877	72.9035110473633	-122.2066040039063	1005.316772460938	81.25919342041017	-219.8443756103516	927.5772094726565	21.14386940002442	-174.2986450195313	1148.84716796875	17.12177276611328	-199.2149505615235	1155.635620117188	37.22811126708985	-134.7398071289063	1105.664306640625	18.9736614227295	-85.15296173095705	1006.136779785156	1583.980346679688	-223.3939056396485	900.3464965820315	1318.39208984375	-221.7979736328126	1180.172119140625	1274.261474609375	-234.4324798583985	1122.3505859375	1479.84423828125	-219.8695526123047	889.1809692382815	1355.784912109375	-334.0541687011719	948.4338378906252	1512.808227539063	-338.6497497558594	1009.297424316406	1509.326416015625	-416.1333312988282	1079.167114257813	1491.557006835938	-433.0844726562501	1027.685302734375	1157.999755859375	-508.6570129394532	975.592468261719	1146.687744140625	-421.8923339843751	978.9752197265627	1131.581909179688	-482.872772216797	1143.584716796875	901.2449951171877	-459.3855285644532	1091.55615234375	898.7080078125002	-527.8601684570314	1198.5888671875	810.8704223632815	-477.5426025390626	1095.724609375	803.2991943359377	-530.5802612304689	892.3027954101565	1353.061889648438	-120.4485321044922	950.2478637695315	1506.019775390625	-117.3788604736328	997.6065063476565	1504.9130859375	-40.30398178100587	1054.966918945313	1496.179565429688	-14.54891395568848	993.2421875000002	1156.7744140625	44.04805755615235	964.193786621094	1141.244995117188	-43.59546279907227	952.627136230469	1131.736083984375	12.9071798324585	1125.1572265625	894.1040649414065	16.5134391784668	1062.888793945313	885.9681396484377	68.25903320312501	1164.635009765625	806.1090087890627	27.94858741760255	1058.947021484375	789.1170043945315	60.22066497802736	
94	0.93	1135.357543945313	1036.236083984375	-360.9260253906251	923.655456542969	1057.767944335938	-269.6331176757813	926.9168701171877	1063.330688476563	-172.3353729248047	1140.802856445313	1044.169555664063	-85.91177368164064	1057.363403320313	970.497497558594	-414.7589111328126	1206.941040039063	549.3388061523439	-425.8477478027345	1229.374877929688	535.2597045898439	-279.5111083984376	1171.525634765625	507.2252197265626	-429.8498535156251	1243.1083984375	465.3760986328126	-379.2940063476563	923.420837402344	211.4313659667969	-394.5401000976564	943.4495849609377	214.9478454589844	-299.3763732910157	849.7852172851565	202.8200073242188	-348.3213806152344	1014.883239746094	83.73326110839845	-285.9781494140626	1030.9755859375	85.0892791748047	-344.9782104492188	991.7757568359377	81.54724884033205	-391.0941772460939	1048.44482421875	964.9315185546877	-37.12031173706055	1070.713989257813	523.1253051757814	-97.62944030761722	1084.946044921875	513.8601684570314	-240.0554962158204	1055.7392578125	465.0552062988282	-97.8471374511719	1123.126586914063	448.843719482422	-157.3723449707032	978.149108886719	73.29662322998048	-122.5713653564453	1005.514465332031	81.2084197998047	-220.3361511230469	927.650817871094	21.59895324707032	-174.4922790527344	1148.953125	17.01513099670411	-199.2596740722657	1155.710083007813	37.20166778564454	-134.7565460205078	1105.746337890625	19.24770545959473	-85.34765625000001	1018.047485351563	1584.034423828125	-224.3369903564454	912.6934814453127	1318.350830078125	-221.4319915771485	1192.308349609375	1274.375244140625	-234.7765197753907	1134.312133789063	1480.055419921875	-220.844467163086	901.0703735351565	1355.80908203125	-333.7144165039063	960.2694091796877	1512.638061523438	-339.0392456054688	1020.837280273438	1509.007568359375	-416.8128967285157	1090.3974609375	1490.985595703125	-434.1489562988282	1034.092529296875	1157.180908203125	-507.1339721679689	982.4502563476565	1147.43701171875	-420.1464843750001	984.9165649414065	1132.094848632813	-481.0703125000001	1144.268676757813	898.077087402344	-456.9197692871095	1092.172119140625	896.5488281250002	-525.4104614257814	1197.272827148438	806.4215087890627	-474.8387451171876	1094.300170898438	801.0548095703127	-527.8660278320314	904.7692871093752	1353.12353515625	-120.2310638427735	962.2734985351565	1506.144897460938	-118.0130844116211	1009.103210449219	1505.238647460938	-41.05706787109376	1067.161987304688	1496.924438476563	-15.52768611907959	1009.669860839844	1156.985107421875	45.05079650878907	981.147399902344	1140.342651367188	-42.59924316406251	969.5064086914065	1130.796020507813	13.92173957824707	1148.252197265625	897.7020263671877	17.94870185852051	1086.013061523438	887.8650512695315	69.36926269531251	1190.349853515625	811.1206665039065	29.59795951843262	1084.953857421875	790.8210449218752	61.31866836547853	
